<svg xmlns="http://www.w3.org/2000/svg" xmlns:xlink="http://www.w3.org/1999/xlink" width="100" height="100" viewBox="0 0 100 100">
  <defs>
    <style>
      .cls-1 {
        fill: none;
      }

      .cls-2 {
        opacity: 0.05;
        fill: url(#linear-gradient);
      }

      .cls-3, .cls-4, .cls-5 {
        fill: #fff;
      }

      .cls-4, .cls-5, .cls-6, .cls-7, .cls-8 {
        stroke: #2d2d2d;
        stroke-miterlimit: 10;
      }

      .cls-4, .cls-7 {
        stroke-linecap: round;
      }

      .cls-4, .cls-5, .cls-6 {
        stroke-width: 0.7px;
      }

      .cls-6 {
        fill: #474747;
      }

      .cls-7, .cls-9 {
        fill: #ff8e93;
      }

      .cls-7, .cls-8 {
        stroke-width: 0.5px;
      }

      .cls-8 {
        fill: #86bcff;
      }

      .cls-9 {
        opacity: 0.5;
        mix-blend-mode: multiply;
        isolation: isolate;
      }
    </style>
    <linearGradient id="linear-gradient" x1="0.5" x2="0.5" y2="1" gradientUnits="objectBoundingBox">
      <stop offset="0" stop-color="#1778f2"/>
      <stop offset="1" stop-color="#f40009"/>
    </linearGradient>
  </defs>
  <g id="Group_124999" data-name="Group 124999" transform="translate(-48 -2550)">
    <rect id="Rectangle_10371" data-name="Rectangle 10371" class="cls-1" width="100" height="100" transform="translate(48 2550)"/>
    <g id="Group_124198" data-name="Group 124198">
      <g id="Group_124197" data-name="Group 124197">
        <g id="Group_124191" data-name="Group 124191">
          <g id="Group_124150" data-name="Group 124150" transform="translate(-165 564)">
            <path id="Path_228174" data-name="Path 228174" class="cls-2" d="M32.3,83.491A105.79,105.79,0,0,1,17.2,70.917,105.57,105.57,0,0,1,4.909,56.1,17.251,17.251,0,0,1,0,44.2,16.783,16.783,0,0,1,4.909,32.3,144.539,144.539,0,0,1,32.3,4.909,17.263,17.263,0,0,1,44.2,0,16.781,16.781,0,0,1,56.1,4.909a164.255,164.255,0,0,1,13.841,12.23A164.608,164.608,0,0,1,83.491,32.3,17.24,17.24,0,0,1,88.4,44.2a16.782,16.782,0,0,1-4.909,11.9A163.679,163.679,0,0,1,69.255,71.955,164.629,164.629,0,0,1,56.1,83.491a17.386,17.386,0,0,1-7.239,4.259,16.564,16.564,0,0,1-4.664.65,17.462,17.462,0,0,1-5.792-1.133A18.7,18.7,0,0,1,32.3,83.491Z" transform="translate(221.375 1992)"/>
          </g>
          <g id="Group_124154" data-name="Group 124154" transform="translate(5140.425 742)">
            <g id="Group_124152" data-name="Group 124152" transform="translate(-6859.486 1039.099)">
              <path id="Path_198212" data-name="Path 198212" class="cls-3" d="M2731.049,161.2l3.081,2.043c.288,5.01.647,11.767.99,19.8.308,7.213.36,9.766.671,13.892a187.066,187.066,0,0,0,2.627,20.114c-7.082-1.636-24.074-.807-31.156-2.443l6.779-42.154Z" transform="translate(-905.496 648.269)"/>
              <path id="Path_198213" data-name="Path 198213" class="cls-4" d="M2706.36,214.4a228.816,228.816,0,0,0,1.929-22.893c.05-1.476.386-14.213-3.792-16.472a3.179,3.179,0,0,0-.509-.248c-.874-.314-2.17-.189-7.743-.063-8.471.191-10.364-.179-11,1.06s.864,3.489,3.861,7.986a33.748,33.748,0,0,0,4.131,5.461c1.676,1.722,2.459,2.048,7.916,5.993,2.825,2.042,6.293,4.254,5.9,5.221a.97.97,0,0,1-.666.482c-.609.123-1.195-.448-1.389-.631-1.688-1.584-5.208-3.265-5.5-2.936-.2.223,1.237,1.2,1.017,2.178-.316,1.4-4.039,2.6-5.937,1.263-1.737-1.222-.582-3.605-2.464-6.569a10.2,10.2,0,0,0-3.941-3.394c-5.386-3.153-15.792-12.836-14.4-18.039.657-2.46,3.82-3.425,12.972-5.789,7.305-1.887,15.917-4.016,25.642-6.236l18.805.132" transform="translate(-904.623 648.277)"/>
              <path id="Path_198214" data-name="Path 198214" class="cls-4" d="M2732.465,160.9c4.355,1.222,11.69,3.252,20.926,5.662,12.906,3.367,16.885,4.177,17.516,6.9,1.278,5.518-11.879,15.7-14.652,17.835a13.673,13.673,0,0,0-3.945,4.015c-1.773,2.959-1.145,4.986-2.822,5.981-1.833,1.088-4.953.066-5.36-1.3-.305-1.024.978-2.071.711-2.331-.417-.408-4.12,1.583-5.724,3.194-.166.166-.646.668-1.137.568a1.145,1.145,0,0,1-.74-.785c-.17-.629.649-1.4,5.973-5.137,5.511-3.868,6.3-4.183,8-5.881a33.744,33.744,0,0,0,4.206-5.4c3.059-4.455,4.589-6.681,3.972-7.931-.579-1.173-2.311-1.061-10.982-1.214-7.478-.133-8.255-.326-9.419.439-2.777,1.824-3.272,6-2.969,14.97a196.216,196.216,0,0,0,2.356,24.271" transform="translate(-905.895 648.274)"/>
              <path id="Path_198215" data-name="Path 198215" class="cls-5" d="M2709.384,152.718c-1.454-1.117-3.12-1.011-3.733-.248a2,2,0,0,0-.142,1.9,2.781,2.781,0,0,0,1.263,1.292,14.109,14.109,0,0,1,3.791,3.483" transform="translate(-905.308 648.47)"/>
              <path id="Path_198216" data-name="Path 198216" class="cls-5" d="M2732.719,151.173c1.764-1.322,3.52-1.606,4.186-.947.623.618.227,2.007.139,2.317a6.272,6.272,0,0,1-1.681,2.518,37.131,37.131,0,0,0-2.6,3.3" transform="translate(-905.9 648.513)"/>
              <path id="Path_198217" data-name="Path 198217" class="cls-5" d="M2733.671,153.3c.267,7.244-5.228,12.081-6.295,13.02-2.609,2.3-4.54,2.524-5,2.567-2.954.274-5.238-1.5-6.5-2.477-.553-.429-6.146-4.915-6.294-12.178-.138-6.806,4.537-15.384,11.46-15.652C2727.9,138.32,2733.415,146.357,2733.671,153.3Z" transform="translate(-905.399 648.757)"/>
              <path id="Path_198218" data-name="Path 198218" class="cls-6" d="M2709.3,152.757a7.15,7.15,0,0,0,4.495,1.007,16.88,16.88,0,0,0,8.221-2.676c5.388-3.308,6.719-6.954,8.447-6.385,1.945.639,1.467,5.646,2.68,5.758.875.08,2.061-2.431,2.408-4.837a12.889,12.889,0,0,0-3.989-11.059c-4.97-4.541-11.773-3.051-13.453-2.684-1.646.361-7.117,1.559-10.125,6.634-2.086,3.521-2.572,8.068-.992,11.29A6.894,6.894,0,0,0,2709.3,152.757Z" transform="translate(-905.324 648.914)"/>
              <path id="Path_198219" data-name="Path 198219" class="cls-4" d="M2685.411,177.316c-.162-.492-.353-1.012-.579-1.551-.145-.348-.295-.679-.445-.993" transform="translate(-904.855 647.975)"/>
              <path id="Path_198220" data-name="Path 198220" class="cls-4" d="M2760.152,177.428c.161-.492.353-1.012.578-1.552.146-.347.3-.679.446-.992" transform="translate(-906.493 647.973)"/>
              <path id="Path_198231" data-name="Path 198231" class="cls-7" d="M2715.989,200.782a3.993,3.993,0,0,0,.581,2.6c.752,1.094,1.756,1.046,2.2,2.109a2.533,2.533,0,0,1-.427,2.6c-.962,1.018-2.689.606-2.906.551-2.646-.671-4.651-4.48-4.189-7.859.3-2.181,1.7-4.731,3.792-5.291a2.851,2.851,0,0,1,2.233.214,3.051,3.051,0,0,1,1.162,2.477,4.856,4.856,0,0,1-.8,2.355,12.522,12.522,0,0,1-1.427,2.183" transform="translate(-905.927 650.53)"/>
              <path id="Path_198232" data-name="Path 198232" class="cls-8" d="M2722.159,213.467c.007-1.742-.032-3.321-.092-4.709-.164-3.822-.422-4.7-1.04-5.479a6.015,6.015,0,0,0-3.578-1.941,5.9,5.9,0,0,0-.605.743,1.494,1.494,0,0,0-.327.638,1.226,1.226,0,0,0,.443.96,3.246,3.246,0,0,1,2.233.114c1.424.713,1.587,2.718,1.772,4.993a19.851,19.851,0,0,1-.178,4.691" transform="translate(-906.042 650.4)"/>
              <path id="Path_198233" data-name="Path 198233" class="cls-8" d="M2723.757,213.454c-.007-1.743.032-3.321.092-4.709.164-3.823.422-4.7,1.04-5.48a6.013,6.013,0,0,1,3.578-1.94,5.788,5.788,0,0,1,.605.743,1.493,1.493,0,0,1,.327.637,1.227,1.227,0,0,1-.443.961,3.245,3.245,0,0,0-2.233.113c-1.424.714-1.587,2.719-1.772,4.994a19.871,19.871,0,0,0,.178,4.69" transform="translate(-906.199 650.401)"/>
              <path id="Path_198234" data-name="Path 198234" class="cls-7" d="M2729.889,200.782a3.993,3.993,0,0,1-.581,2.6c-.752,1.094-1.756,1.046-2.2,2.109a2.536,2.536,0,0,0,.429,2.6c.961,1.018,2.688.606,2.906.551,2.646-.671,4.651-4.48,4.189-7.859-.3-2.181-1.7-4.731-3.792-5.291a2.851,2.851,0,0,0-2.233.214,3.052,3.052,0,0,0-1.163,2.477,4.86,4.86,0,0,0,.8,2.355,12.57,12.57,0,0,0,1.425,2.183" transform="translate(-906.267 650.53)"/>
              <path id="Path_229420" data-name="Path 229420" class="cls-9" d="M185.071,369.988c.281,1.26,1.036,4.65-.953,7.389-2.735,3.767-8.33,3.1-9.079,3-4.15-.558-10.279-3.822-10.387-10.032a10.211,10.211,0,0,1,10.032-10.387C181.08,359.844,184.279,366.428,185.071,369.988Z" transform="translate(1645.901 482.552)"/>
            </g>
          </g>
        </g>
      </g>
    </g>
  </g>
</svg>
