<svg xmlns="http://www.w3.org/2000/svg" xmlns:xlink="http://www.w3.org/1999/xlink" width="100" height="100" viewBox="0 0 100 100">
  <defs>
    <style>
      .cls-1 {
        fill: none;
      }

      .cls-2 {
        opacity: 0.05;
        fill: url(#linear-gradient);
      }

      .cls-3 {
        fill: #fff;
      }

      .cls-4 {
        fill: #2d2d2d;
      }

      .cls-5 {
        fill: #474747;
      }

      .cls-6 {
        mix-blend-mode: multiply;
        isolation: isolate;
      }

      .cls-7 {
        fill: #ff8e93;
        opacity: 0.5;
      }
    </style>
    <linearGradient id="linear-gradient" x1="0.5" x2="0.5" y2="1" gradientUnits="objectBoundingBox">
      <stop offset="0" stop-color="#1778f2"/>
      <stop offset="1" stop-color="#f40009"/>
    </linearGradient>
  </defs>
  <g id="Group_124979" data-name="Group 124979" transform="translate(-50 -672)">
    <rect id="Rectangle_10351" data-name="Rectangle 10351" class="cls-1" width="100" height="100" transform="translate(50 672)"/>
    <g id="Group_124905" data-name="Group 124905">
      <path id="Path_153243" data-name="Path 153243" class="cls-2" d="M32.3,83.491A105.79,105.79,0,0,1,17.2,70.917,105.57,105.57,0,0,1,4.909,56.1,17.251,17.251,0,0,1,0,44.2,16.783,16.783,0,0,1,4.909,32.3,144.539,144.539,0,0,1,32.3,4.909,17.263,17.263,0,0,1,44.2,0,16.781,16.781,0,0,1,56.1,4.909a164.255,164.255,0,0,1,13.841,12.23A164.608,164.608,0,0,1,83.491,32.3,17.24,17.24,0,0,1,88.4,44.2a16.782,16.782,0,0,1-4.909,11.9A163.679,163.679,0,0,1,69.255,71.955,164.629,164.629,0,0,1,56.1,83.491a17.386,17.386,0,0,1-7.239,4.259,16.564,16.564,0,0,1-4.664.65,17.462,17.462,0,0,1-5.792-1.133A18.7,18.7,0,0,1,32.3,83.491Z" transform="translate(56.375 676)"/>
      <g id="Group_75788" data-name="Group 75788" transform="translate(29.139 637.805)">
        <g id="Group_3388" data-name="Group 3388" transform="translate(51.162 67.137)">
          <path id="Path_259" data-name="Path 259" class="cls-3" d="M62.136,67.342l2.207,2.848-1.688,3.86,1.53,6.319,5.045,6.171,3.626,4.009-.263,4.483,10.721,3.9,5.989,7.6,1.456,10.635-3.293,8.791-8.339,6.118L51.59,130.67l-.21-4.782,2.8-8.931,3.924-3.235,1.764-4.246-1.834-4.9-3.5-8.72-2.242-13.08,1.472-7.6Z" transform="translate(-51.38 -67.342)"/>
        </g>
        <g id="Group_3389" data-name="Group 3389" transform="translate(58.595 50.136)">
          <ellipse id="Ellipse_3146" data-name="Ellipse 3146" class="cls-3" cx="10.089" cy="7.137" rx="10.089" ry="7.137" transform="matrix(0.703, -0.711, 0.711, 0.703, 0, 14.344)"/>
          <path id="Path_260" data-name="Path 260" class="cls-4" d="M68.159,71.516A6.122,6.122,0,0,1,63.7,69.806c-2.911-2.923-1.976-8.616,2.083-12.693a12.117,12.117,0,0,1,8.195-3.8,6.124,6.124,0,0,1,4.456,1.711c2.912,2.922,1.977,8.617-2.083,12.692h0A12.119,12.119,0,0,1,68.159,71.516Zm5.823-17.509a11.412,11.412,0,0,0-7.7,3.6c-3.791,3.8-4.726,9.058-2.083,11.712a5.444,5.444,0,0,0,3.963,1.506,11.414,11.414,0,0,0,7.7-3.6h0c3.793-3.8,4.728-9.059,2.084-11.712A5.447,5.447,0,0,0,73.982,54.007Z" transform="translate(-58.902 -50.223)"/>
        </g>
        <g id="Group_3392" data-name="Group 3392" transform="translate(45.285 42.948)">
          <g id="Group_3390" data-name="Group 3390" transform="translate(0.348 0.346)">
            <path id="Path_261" data-name="Path 261" class="cls-5" d="M80.639,56.637c-1.4,2.427-4.66,3.135-7.7,3.795-1.67.363-1.883.193-3.386.618a18.44,18.44,0,0,0-5.628,2.78c-3.571,2.718-2.718,5.471-6.773,9.489-1.44,1.426-3.669,3.574-6.7,3.558-2.077-.011-4.486-1.04-4.647-2.323-.107-.861.861-1.347,2.417-3.088a24.559,24.559,0,0,0,3.123-4.59,38.644,38.644,0,0,0,3.016-7.423c1.05-3.082,1.165-3.974,2.217-6.443a22.089,22.089,0,0,1,1.8-3.7,14.461,14.461,0,0,1,7.783-5.649,13.04,13.04,0,0,1,8.928,1.06,10.675,10.675,0,0,1,5.277,5.163C80.711,50.653,82.169,53.99,80.639,56.637Z" transform="translate(-45.804 -43.296)"/>
          </g>
          <g id="Group_3391" data-name="Group 3391">
            <path id="Path_262" data-name="Path 262" class="cls-4" d="M50.491,77.222h-.037c-2.207-.011-4.8-1.093-4.99-2.628-.094-.753.4-1.234,1.212-2.031.355-.346.8-.778,1.291-1.331a24.449,24.449,0,0,0,3.08-4.534,38.321,38.321,0,0,0,2.986-7.358c.381-1.116.638-1.942.861-2.659a33.814,33.814,0,0,1,1.368-3.811A22.248,22.248,0,0,1,58.1,49.116a14.675,14.675,0,0,1,7.989-5.795,13.434,13.434,0,0,1,9.168,1.088,11.011,11.011,0,0,1,5.437,5.335c1.541,3.524.985,5.787.247,7.064h0c-1.48,2.561-4.9,3.305-7.923,3.961a15.9,15.9,0,0,1-1.647.274,9.829,9.829,0,0,0-1.717.339A17.939,17.939,0,0,0,64.135,64.1,10.015,10.015,0,0,0,61,68.311a16.906,16.906,0,0,1-3.6,5.253C56.015,74.933,53.705,77.222,50.491,77.222ZM69.155,43.641a12.027,12.027,0,0,0-2.9.354,14.232,14.232,0,0,0-7.578,5.5A21.8,21.8,0,0,0,56.9,53.143a33.566,33.566,0,0,0-1.345,3.744c-.224.723-.483,1.555-.864,2.674a38.972,38.972,0,0,1-3.044,7.486,24.959,24.959,0,0,1-3.163,4.647c-.511.571-.961,1.011-1.323,1.365-.754.738-1.058,1.052-1.008,1.449.126,1.008,2.258,2.009,4.3,2.019h.033c2.929,0,5.112-2.163,6.418-3.458a16.294,16.294,0,0,0,3.464-5.06,10.693,10.693,0,0,1,3.344-4.457,18.677,18.677,0,0,1,5.744-2.839,10.237,10.237,0,0,1,1.823-.359,15.941,15.941,0,0,0,1.585-.264c3.019-.656,6.141-1.334,7.468-3.629h0c.658-1.138,1.143-3.181-.281-6.44a10.377,10.377,0,0,0-5.117-4.995A13,13,0,0,0,69.155,43.641Z" transform="translate(-45.453 -42.948)"/>
          </g>
        </g>
        <g id="Group_3393" data-name="Group 3393" transform="translate(62.018 69.794)">
          <path id="Path_263" data-name="Path 263" class="cls-4" d="M85.527,128.527a.346.346,0,0,1-.247-.589A19.07,19.07,0,0,0,70.509,95.515l-.109-.682a3.731,3.731,0,0,0,2.17-1.528,3.893,3.893,0,0,0-.008-3.978A23.522,23.522,0,0,1,62.5,76.295a5.289,5.289,0,0,1-.1-2.268,7.114,7.114,0,0,1,1.921-3.9.347.347,0,1,1,.508.472,6.432,6.432,0,0,0-1.74,3.514,4.435,4.435,0,0,0,.075,1.969A22.823,22.823,0,0,0,73,88.782l.117.119a4.542,4.542,0,0,1,.038,4.778A4.066,4.066,0,0,1,72.1,94.791a19.762,19.762,0,0,1,13.674,33.634A.347.347,0,0,1,85.527,128.527Z" transform="translate(-62.328 -70.021)"/>
        </g>
        <g id="Group_3394" data-name="Group 3394" transform="translate(50.997 75.592)">
          <path id="Path_264" data-name="Path 264" class="cls-4" d="M51.6,128.37a.346.346,0,0,1-.345-.323,18.821,18.821,0,0,1,.239-4.5,14.865,14.865,0,0,1,3.956-8.177,17.521,17.521,0,0,1,2.633-2.341,5.2,5.2,0,0,0,1.565-2.677,5.51,5.51,0,0,0-1.049-4.361c-3.578-4.591-6.926-16.142-6.052-24.728A23.469,23.469,0,0,1,53.686,76.1a.347.347,0,0,1,.657.223,22.805,22.805,0,0,0-1.107,5.01c-.859,8.427,2.413,19.743,5.909,24.231a6.116,6.116,0,0,1,1.179,4.937,5.871,5.871,0,0,1-1.806,3.066,17.038,17.038,0,0,0-2.557,2.273,14.8,14.8,0,0,0-2.122,2.877,14.954,14.954,0,0,0-1.661,4.95,18.108,18.108,0,0,0-.231,4.33.346.346,0,0,1-.323.37Z" transform="translate(-51.214 -75.868)"/>
        </g>
        <g id="Group_3397" data-name="Group 3397" transform="translate(74.146 101.062)">
          <g id="Group_3395" data-name="Group 3395" transform="translate(0 0)">
            <ellipse id="Ellipse_3147" data-name="Ellipse 3147" class="cls-3" cx="4.853" cy="4.324" rx="4.853" ry="4.324" transform="translate(0 9.491) rotate(-77.935)"/>
          </g>
          <g id="Group_3396" data-name="Group 3396" transform="translate(0.547 0.469)">
            <path id="Path_265" data-name="Path 265" class="cls-4" d="M79.6,112.385a4.184,4.184,0,0,1-.882-.094,4.961,4.961,0,0,1-3.482-6.061,5.478,5.478,0,0,1,2.09-3.3,4.348,4.348,0,0,1,6.487,1.387,5.486,5.486,0,0,1,.559,3.864h0A5.1,5.1,0,0,1,79.6,112.385Zm.4-9.664a3.827,3.827,0,0,0-2.265.77,4.8,4.8,0,0,0-1.822,2.884,4.008,4.008,0,1,0,7.779,1.663,4.789,4.789,0,0,0-.484-3.376,3.723,3.723,0,0,0-2.464-1.86A3.508,3.508,0,0,0,80,102.721Z" transform="translate(-75.11 -102.026)"/>
          </g>
        </g>
        <g id="Group_3400" data-name="Group 3400" transform="translate(62.935 109.767)">
          <g id="Group_3398" data-name="Group 3398" transform="translate(0.346 0.555)">
            <path id="Path_266" data-name="Path 266" class="cls-3" d="M82.449,110.892a8.531,8.531,0,0,1,.954,6.82c-.125.4-1.382,4.226-4.955,5.128a6.873,6.873,0,0,1-4.4-.458,5.964,5.964,0,0,1-3.049-2.535c-.637-1.207-.369-2.056-.955-2.3-.806-.338-1.618,1.139-3.266,1.239a3.629,3.629,0,0,1-2.211-.688c-.932-.849-1.018-1.352-.934-1.652.3-1.076,3.041-.39,4.936-2.28.8-.794.771-1.373,1.473-1.622,1.127-.4,2.521.625,3.525,1.561a2.618,2.618,0,0,0,4.179-2.5,3.543,3.543,0,0,0,1.493.534A4.116,4.116,0,0,0,82.449,110.892Z" transform="translate(-63.602 -110.892)"/>
          </g>
          <g id="Group_3399" data-name="Group 3399" transform="translate(0 0)">
            <path id="Path_267" data-name="Path 267" class="cls-4" d="M76.946,123.365A7.535,7.535,0,0,1,73.9,122.7a6.309,6.309,0,0,1-3.218-2.69,5.445,5.445,0,0,1-.507-1.5c-.092-.432-.137-.59-.275-.648-.209-.086-.493.091-.941.391a4.255,4.255,0,0,1-2.171.875,3.887,3.887,0,0,1-2.425-.746c-.9-.811-1.234-1.466-1.074-2.035.193-.689.965-.844,1.858-1.024a5.773,5.773,0,0,0,3.166-1.407,4.321,4.321,0,0,0,.638-.823,1.81,1.81,0,0,1,.964-.88c1.034-.366,2.3.166,3.878,1.633a2.272,2.272,0,0,0,3.6-2.188l-.116-.753.644.406a3.193,3.193,0,0,0,1.349.484,3.75,3.75,0,0,0,2.929-1.149l.308-.311.233.372a8.84,8.84,0,0,1,.991,7.107c-.14.45-1.472,4.421-5.2,5.361A6.475,6.475,0,0,1,76.946,123.365Zm-7.159-6.223a1,1,0,0,1,.383.078c.485.2.583.659.686,1.143a4.791,4.791,0,0,0,.441,1.319,5.675,5.675,0,0,0,2.882,2.377,6.375,6.375,0,0,0,4.182.439c3.363-.848,4.58-4.481,4.707-4.893a8.054,8.054,0,0,0-.706-6.173,4.3,4.3,0,0,1-3.17,1.049,3.772,3.772,0,0,1-1.082-.291,2.962,2.962,0,0,1-4.762,2.183c-1.357-1.259-2.453-1.775-3.2-1.508-.282.1-.391.255-.611.6a5.089,5.089,0,0,1-.732.94,6.442,6.442,0,0,1-3.52,1.6c-.67.135-1.248.251-1.328.532s.227.749.834,1.3a3.245,3.245,0,0,0,1.956.6,3.632,3.632,0,0,0,1.828-.76A2.368,2.368,0,0,1,69.787,117.141Z" transform="translate(-63.253 -110.332)"/>
          </g>
        </g>
        <g id="Group_3401" data-name="Group 3401" transform="translate(52.52 82.669)">
          <path id="Path_268" data-name="Path 268" class="cls-3" d="M60.289,87.485a73.405,73.405,0,0,0,6.178-4.013,25.722,25.722,0,0,0,5.017,4.382,4.03,4.03,0,0,1,1.637,5.386,4.959,4.959,0,0,1-2.139,2.033A41.02,41.02,0,0,1,65.2,98.389c-1.925.835-4.454,2.539-6.918,6.389a34.136,34.136,0,0,1-5.148-13.65A73.448,73.448,0,0,0,60.289,87.485Z" transform="translate(-52.753 -83.009)"/>
          <path id="Path_269" data-name="Path 269" class="cls-4" d="M58.281,105.415l-.293-.452a34.467,34.467,0,0,1-5.2-13.787l-.038-.262.241-.106a73.544,73.544,0,0,0,7.121-3.626h0a73.291,73.291,0,0,0,6.149-3.994L66.512,83l.209.229a25.856,25.856,0,0,0,4.948,4.325,4.372,4.372,0,0,1,1.76,5.83,5.327,5.327,0,0,1-2.271,2.177A41.265,41.265,0,0,1,65.335,98.7a15.74,15.74,0,0,0-6.763,6.257Zm-4.768-14.08a33.768,33.768,0,0,0,4.77,12.8,16.08,16.08,0,0,1,6.776-6.069A40.653,40.653,0,0,0,70.8,94.973a4.635,4.635,0,0,0,2.008-1.889,3.918,3.918,0,0,0-.071-3.534,3.874,3.874,0,0,0-1.4-1.38,26.293,26.293,0,0,1-4.917-4.24c-1.922,1.378-3.924,2.673-5.957,3.851h0A73.715,73.715,0,0,1,53.514,91.335Z" transform="translate(-52.75 -83.005)"/>
        </g>
        <g id="Group_3402" data-name="Group 3402" transform="translate(46.706 77.735)">
          <path id="Path_270" data-name="Path 270" class="cls-3" d="M62.905,84.118c-.817,1.389-1.877,3.3-2.989,5.637a55.67,55.67,0,0,0-3.462,8.738c-1.389,4.8-2.083,7.2-1.539,9.838.256,1.243,2.4,4.054,6.674,9.623,2.72,3.542,3.926,5.006,6.077,5.876a9.814,9.814,0,0,0,5.056.879c.767-.129,1.547-.174,2.308-.329,1.08-.221,1.683-.441,2.033-.11a.865.865,0,0,1,.166.934c-.157.332-.526.364-1.1.6-.761.319-1.6.888-1.539,1.1.084.274,1.461-.158,3.078-.11,2.207.065,5.282.818,5.386,1.869.111,1.122-3.179,2.49-5.716,2.968a13.383,13.383,0,0,1-5.716-.11c-2.639-.781-4.785-2.111-9.728-6.485a95.621,95.621,0,0,1-7.914-7.585c-4.045-4.4-6.068-6.593-6.651-8.793-.425-1.607.587-5.342,2.63-12.745a96.225,96.225,0,0,1,4.35-13.251c.766-1.8,1.47-3.264,1.978-4.287" transform="translate(-46.889 -78.032)"/>
          <path id="Path_271" data-name="Path 271" class="cls-4" d="M74.666,132.228a12,12,0,0,1-3.144-.373c-2.819-.836-5.124-2.368-9.859-6.56l-.4-.354a92.9,92.9,0,0,1-7.537-7.255c-4.078-4.431-6.125-6.655-6.73-8.938-.44-1.661.488-5.162,2.63-12.926a97.608,97.608,0,0,1,4.366-13.3c.616-1.444,1.284-2.893,1.987-4.3a.347.347,0,1,1,.622.309c-.7,1.4-1.36,2.836-1.97,4.269a96.888,96.888,0,0,0-4.335,13.206c-1.895,6.869-3.039,11.016-2.628,12.564.561,2.118,2.569,4.3,6.569,8.647a92.013,92.013,0,0,0,7.487,7.2l.4.356c5.157,4.562,7.2,5.7,9.6,6.412a13.194,13.194,0,0,0,5.553.1c2.878-.541,5.5-1.92,5.434-2.593s-2.663-1.484-5.05-1.556a13.1,13.1,0,0,0-2,.13c-.792.1-1.272.157-1.4-.265-.208-.682,1.536-1.437,1.735-1.52.16-.068.3-.119.433-.165.321-.116.438-.165.488-.269a.527.527,0,0,0-.09-.534c-.156-.147-.592-.05-1.2.084-.163.036-.338.074-.529.113-.443.091-.892.146-1.344.2-.326.04-.652.079-.977.133a10.061,10.061,0,0,1-5.244-.9c-2.263-.915-3.542-2.5-6.221-5.986-4.6-5.987-6.472-8.469-6.739-9.764-.561-2.725.143-5.157,1.545-10A55.953,55.953,0,0,1,59.6,89.6c.916-1.927,1.926-3.833,3-5.664a.347.347,0,1,1,.6.353c-1.066,1.813-2.067,3.7-2.974,5.61a55.308,55.308,0,0,0-3.442,8.687c-1.371,4.736-2.06,7.114-1.532,9.671.245,1.19,2.641,4.31,6.609,9.481,2.666,3.473,3.833,4.915,5.931,5.766a9.53,9.53,0,0,0,4.869.859c.335-.058.672-.1,1.009-.139.431-.052.862-.1,1.286-.189l.518-.112c.815-.178,1.4-.309,1.825.09a1.217,1.217,0,0,1,.24,1.335,1.311,1.311,0,0,1-.882.626c-.118.042-.251.089-.4.15a5.9,5.9,0,0,0-.908.483l.219-.026a13.754,13.754,0,0,1,2.1-.135c1.729.052,5.571.672,5.721,2.183.161,1.626-4.051,2.977-6,3.343A14.86,14.86,0,0,1,74.666,132.228Z" transform="translate(-46.886 -78.029)"/>
        </g>
        <g id="Group_3403" data-name="Group 3403" class="cls-6" transform="translate(63.128 104.01)">
          <path id="Path_272" data-name="Path 272" class="cls-7" d="M83.7,114.475c.279,1.25,1.026,4.612-.946,7.328-2.712,3.735-8.259,3.073-9,2.973-4.116-.554-10.193-3.79-10.3-9.948a10.125,10.125,0,0,1,9.948-10.3C79.738,104.417,82.911,110.945,83.7,114.475Z" transform="translate(-63.447 -104.527)"/>
        </g>
      </g>
    </g>
  </g>
</svg>
